# xmcd CD database file
#
# Track frame offsets:
#	150
#	13110
#	26572
#	39797
#	53922
#	67995
#	78450
#	90005
#	107002
#	116810
#
# Disc length: 1713 seconds
#
# Revision: 2
# Processed by: cddbd v1.5.2PL0 Copyright (c) Steve Scherf et al.
# Submitted via: CDex 1.51
#
DISCID=6e06af0a
DTITLE=Johnny Paycheck - Super Hits
DYEAR=1997
DGENRE=Country
TTITLE0=She's All I Got
TTITLE1=Someone to Give My Love To
TTITLE2=Slide Off Your Satin Sheets
TTITLE3=I'm the Only Hell (my mama ever raised)
TTITLE4=Friend, Lover, Wife
TTITLE5=Maybellene
TTITLE6=Song and Dance Man
TTITLE7=11 Months and 29 Days
TTITLE8=Mister Lovemaker
TTITLE9=Take This Job and Shove It
EXTD=YEAR: 1997
EXTT0=
EXTT1=
EXTT2=
EXTT3=
EXTT4=
EXTT5=
EXTT6=
EXTT7=
EXTT8=
EXTT9=
PLAYORDER=
